PathFileType	4	(X/Y/Z)	3_1_tpose_p0_0-245_filt_butterworth.trc
DataRate	CameraRate	NumFrames	NumMarkers	Units	OrigDataRate	OrigDataStartFrame	OrigNumFrames
59.0	59.0	7	27	m	59.0	214	245
Frame#	Time	RHip			RKnee			RAnkle			RBigToe			RSmallToe			RHeel			LHip			LKnee			LAnkle			LBigToe			LSmallToe			LHeel			Neck			Head			Nose			RShoulder			RElbow			RWrist			RThumb			RIndex			RPinky			LShoulder			LElbow			LWrist			LThumb			LIndex			LPinky			
		X1	Y1	Z1	X2	Y2	Z2	X3	Y3	Z3	X4	Y4	Z4	X5	Y5	Z5	X6	Y6	Z6	X7	Y7	Z7	X8	Y8	Z8	X9	Y9	Z9	X10	Y10	Z10	X11	Y11	Z11	X12	Y12	Z12	X13	Y13	Z13	X14	Y14	Z14	X15	Y15	Z15	X16	Y16	Z16	X17	Y17	Z17	X18	Y18	Z18	X19	Y19	Z19	X20	Y20	Z20	X21	Y21	Z21	X22	Y22	Z22	X23	Y23	Z23	X24	Y24	Z24	X25	Y25	Z25	X26	Y26	Z26	X27	Y27	Z27	
214	3.6271186440677967	0.2076552785011775	0.9653335951471379	0.4071546586316915	0.20800852010041085	0.4914211389500698	0.4197417188727596	0.16049999526869826	0.04318328317677171	0.5022049222619913	0.17182286727082896	0.06249876524724689	0.2791771046797367	0.2210000317577904	0.04142139146833264	0.3314362890642201	0.1410081269152883	-0.006931956722275318	0.5328586599956142	-0.013477350785389112	0.9722572388884694	0.37848993363475386	-0.027475043525463948	0.5050867452758555	0.39849625230285884	-0.022804295955030085	0.06864493500065834	0.4231622817212197	0.029540482710040554	0.05403244722096907	0.253974812800623	-0.0434481926195645	0.059246734091664185	0.2811618626092715	-0.00496508680281063	0.0025799770288150985	0.5112343009599288	0.10451413336229001	1.5215340933789439	0.3961483901634255	0.1404033507291534	1.7540878806735147	0.325475107772874	0.13663087780495664	1.6213428057997725	0.2748484452693302	0.2600483699370296	1.4615897851107857	0.3691179446892763	0.5012902161663715	1.4547229240975117	0.4119265365481704	0.7234649297617912	1.4689493000633416	0.40512098890136783	0.8550546135326553	1.4231641650741167	0.35576660180196257	0.9027829088516353	1.414593457755237	0.3863766731786243	0.8872492332929462	1.4013963019777225	0.4711796769718918	-0.05346196237422485	1.4750892971918348	0.3918970659144015	-0.29560119467304735	1.4951309920555698	0.34372256793070866	-0.5367355415173691	1.527644524909253	0.33990937008534017	-0.630061211376337	1.5241955806074297	0.294955502082966	-0.6452995184384837	1.5594282802475234	0.28298164361937816	-0.6497983798094149	1.5556560172123814	0.31852588593404957	
215	3.6440677966101696	0.20775351550707252	0.9649191374835127	0.40754117396294537	0.20801827384955515	0.4914718930032379	0.41974461716289957	0.1604888273515533	0.04314753159314635	0.5022419369864206	0.17157118390681908	0.06299864331487155	0.27706050617954847	0.2221876815039202	0.03917279729028819	0.33187834275533123	0.14090255792328144	-0.00748256725478588	0.5328780778171837	-0.013470086269430774	0.972125804429308	0.37846687343483254	-0.026770840019025483	0.5059283926170617	0.3968843901584171	-0.022805286507161602	0.06853736155896137	0.4228493215996597	0.030247970540107187	0.05650762668007435	0.25022721273031023	-0.04351858671449964	0.05931119937443809	0.2810424202734543	-0.005412996779690291	0.0018608161786354653	0.5123834647119324	0.10451625429385238	1.5215381515324526	0.39615294637797605	0.14040677582792557	1.7540354620609793	0.32546303515598163	0.13662409019585553	1.6213990238643012	0.2748382781953753	0.26015597801563706	1.4616112671808827	0.3693640276419399	0.5003669039216135	1.454386233676055	0.41475163013127864	0.721941975349112	1.4688965737086048	0.4056581507375953	0.8522593524719755	1.4226934384704262	0.3570488162146479	0.9017594168834733	1.413396190231461	0.38924124268003324	0.8869511052524833	1.399839088817895	0.4725099443009746	-0.05339764906431383	1.4757742741343043	0.39193488140285493	-0.2955750312793277	1.4949774755397642	0.3436379399728867	-0.5365591118228805	1.5276786163612024	0.34003695532339917	-0.6318866269021686	1.5234185080140636	0.3008248332173735	-0.6474740119033024	1.5588830590166178	0.2881148615180515	-0.652792115635089	1.5552444713361564	0.3246774311639472	
216	3.6610169491525424	0.20785529446061768	0.96445453807134	0.4079256827548876	0.2080251248159873	0.4914975452674787	0.41973960301515467	0.1604956068312519	0.043178818926426485	0.5022767850184409	0.171214972228718	0.06378038491697456	0.2743252318360245	0.22339973525835408	0.03731951658994645	0.3323834608802077	0.1407886567192466	-0.008082033263544277	0.5329226384909921	-0.013464259565999934	0.9720141192989061	0.37843399959554114	-0.026141449750354196	0.5067275004250151	0.39538087663954213	-0.02275476331661103	0.06835324856905232	0.4229096576059667	0.03085908494498717	0.057269540135858756	0.249087467941201	-0.043445707941163744	0.05918994676066735	0.28107338736545734	-0.005825578621690376	0.0009304749559014332	0.5139003145515367	0.10451764806586872	1.521541453262056	0.3961556209726672	0.14040549521805462	1.754097426389009	0.32546981166816236	0.13661470709929807	1.621405342892495	0.27482370308489545	0.26026509483858434	1.4616543672931148	0.3695632334023995	0.49962613804966893	1.4540477993362582	0.41761488199123326	0.7202188227809894	1.4688826419069296	0.40618651570949693	0.8486131536791175	1.4226226710638852	0.3565755387046484	0.9004267376316928	1.4120027498441907	0.3925574609915607	0.886176612634094	1.3979760118519855	0.4732181250801988	-0.05327920432478421	1.4764823064941757	0.3919177890808155	-0.2955558016995494	1.4951580777135975	0.343618114655825	-0.5364220523912047	1.527603955516517	0.34117556031487806	-0.6336995405603608	1.522567772607361	0.3055658519406603	-0.6504234415691095	1.5581455586661357	0.2950476653834643	-0.6560998795433604	1.554650710157062	0.33208124479624757	
217	3.6779661016949152	0.2079192995295233	0.9640531478496654	0.40814242024753816	0.20802932131956686	0.4914981137914567	0.4197259155813255	0.1605205894437589	0.043234630949752335	0.5023065475366125	0.1708094646016963	0.06471394190558213	0.2713830773978903	0.224474021372162	0.03621411296692782	0.33300821284624393	0.14068206313199547	-0.008651986093226443	0.532988676031569	-0.013467059017911487	0.9720195858712888	0.3783860763139201	-0.025612472238525	0.5074893666592692	0.39402522894995023	-0.022672496335035888	0.06815523784119465	0.42327007332631034	0.03137191594112425	0.05633652847241236	0.25053097924829737	-0.04313082666088211	0.058877568639705384	0.2813322928253125	-0.006241856409464654	-0.00019894818821458195	0.5157628783249752	0.10451764389125992	1.5215429788196886	0.3961562854701011	0.14039971138491258	1.7543676374136112	0.3255130538391835	0.13660910803629092	1.6213617583959603	0.2748042192847652	0.2602636867845354	1.4617328873924829	0.3693259626381341	0.4992640538177151	1.4537285289174418	0.4202300058771793	0.7186913737996352	1.4688502377728243	0.40664507211853645	0.8449841467782515	1.422608506607737	0.3544339132093726	0.8992940947946448	1.4105560234763892	0.39578440744674015	0.8852652914145483	1.3960774068467345	0.47353255979757336	-0.05313469051777639	1.477093771386575	0.3919984898246568	-0.29554967782253017	1.4956002389647856	0.3436820031431586	-0.5366471588175046	1.5273691249880053	0.34363263292675506	-0.6352957886349666	1.521855840884487	0.30853901078314816	-0.6541420098407915	1.5571032158263183	0.30377080297285747	-0.6593642735572978	1.5537240956847778	0.340424208085705	
218	3.694915254237288	0.20792636097558864	0.9637711984876546	0.40811757109442603	0.20803043166825388	0.4914737769739847	0.4197063071116423	0.16054957043918802	0.043251247071788436	0.5023313117416797	0.17041136861537665	0.06566937536473504	0.2686559168611433	0.22523887621228905	0.03602770977186937	0.3337014894358825	0.14059663700223649	-0.009121166561056274	0.5330585789121323	-0.013479738321397032	0.9721604291886823	0.3783221362171513	-0.025154249127578437	0.5082143928528707	0.39275018368618486	-0.0225834061386591	0.06802194321536914	0.4238036103405827	0.031797664342946265	0.054271779463142066	0.25369778846250235	-0.042574643107014656	0.0584233669974212	0.2818055334778348	-0.006678101860485555	-0.0014664909136008	0.5178572668855961	0.10451623212457906	1.5215428352877942	0.39615515609810203	0.14039040912823886	1.7548420979487533	0.3255922957975722	0.1366131358424257	1.6212742551666648	0.27478040687456134	0.2600644585702897	1.4618386927609048	0.3683678002460983	0.4993489065715905	1.4533808982243146	0.4222776393291913	0.7176589530923817	1.4686485049544398	0.40698245335269756	0.8421996924165835	1.4223700848292415	0.3514926213324105	0.8987762959455522	1.4092551749591005	0.3982048900926167	0.8845458357294631	1.3943240941965849	0.47377359966660154	-0.05309159909995776	1.4774803545796096	0.3924586647307731	-0.29555754674863777	1.4962475465139355	0.34381382415935763	-0.5375310294723025	1.5269686480606952	0.34736106874315686	-0.6364536653442339	1.5214818686445772	0.3096928701234977	-0.6583595531379527	1.555742128719935	0.3135659032054721	-0.6621548694376546	1.5523856980481254	0.3490081371329668	
219	3.711864406779661	0.20787800325258796	0.9636125895943324	0.4078604280637148	0.2080274895534539	0.49142524547753796	0.4196864101016775	0.1605615229493485	0.043172807650743585	0.5023528754770858	0.17007810879923208	0.0665073448824234	0.26653960331454846	0.22558415565217632	0.03677789062170536	0.3342907938007806	0.1405359266026611	-0.009469921875402633	0.5331172821659093	-0.013499176350184163	0.9723956445810787	0.3782443660784277	-0.02471520970119714	0.5089607593174219	0.39145335694354355	-0.022486809907441976	0.06794200633020597	0.4245199392518501	0.03213905057502593	0.05190068004805496	0.2573261188106512	-0.04185364469503523	0.05791221445299523	0.2824081816311556	-0.007125854788732778	-0.0028319299090134413	0.5201071133087912	0.10451304544022791	1.521541351940533	0.3961535391037575	0.140378929028247	1.7554504469494752	0.32569506036434753	0.136623165998899	1.6212062391154367	0.27475955902736127	0.2596526563753926	1.4619421692194552	0.36670066376477445	0.4998665137988748	1.4529602935473904	0.4234879880018036	0.7173017003154847	1.4680634196616231	0.4071768599875244	0.840880005500668	1.4217145102144102	0.3491627448687014	0.8991010550368712	1.4082789805453257	0.3993881579523495	0.8842109784674623	1.3928293046908686	0.47406180863281266	-0.05328725394883402	1.4775919542914755	0.3932782688400307	-0.29557653953787427	1.4970309728000408	0.34398218075510684	-0.5391490253904897	1.5264670044125443	0.3519409263926823	-0.6369979129941366	1.5215212161834093	0.30928395824332644	-0.6624646949262141	1.5542256368276683	0.322853350338954	-0.6641278455753254	1.550733840894843	0.35680126181510413	
220	3.7288135593220337	0.20778324756369249	0.9635628264165514	0.4074093577269945	0.20801925924008455	0.4913534642929545	0.4196707029666045	0.16054230301675995	0.04296759430877928	0.5023732024846298	0.16986425156664314	0.06707020242424999	0.2653250316584754	0.2255650681010828	0.03820945477219805	0.3345885130170064	0.1404971202907082	-0.009714003384916401	0.5331629358097385	-0.0135227444154417	0.972688222731218	0.37815468736275254	-0.024251766863105022	0.509819437851167	0.39006584723567383	-0.022360369278429375	0.0677798576692202	0.4255269931371381	0.0323564356625723	0.04995792149835109	0.2602881826287704	-0.04107274810517442	0.05744387970442153	0.2830379113257465	-0.007574131039210237	-0.0042386961681995915	0.5224200071774839	0.10450730059366123	1.5215393274834597	0.39615268431849454	0.1403674321749472	1.7561027009605208	0.32580535924716963	0.1366182118102724	1.6212739215277028	0.2747535232133346	0.2590654996517696	1.462006693719499	0.36454496337517933	0.5007270086366638	1.4524180994751856	0.42383185812864316	0.7175947900247182	1.4669347840113676	0.40725052835565784	0.8413049461145568	1.4205654796918126	0.3487709883506219	0.900211360605644	1.4076285546992626	0.39977301220047007	0.8843157040112564	1.391698426894907	0.47432417398809573	-0.05371716004648546	1.4775281737642807	0.39388382789073667	-0.295604841343898	1.4978012564222478	0.3441604169226107	-0.5413075780511685	1.526010836149422	0.35652871285988497	-0.6369396247180917	1.5219135779773252	0.3076894393153607	-0.6657901580095339	1.5527934118641333	0.329894446159567	-0.6652644429292656	1.5489969908626189	0.3628452516558569	
